0
SECTION
2
HEADER
9
$INSUNITS
70
4
9
$ACADVER
1
AC1014
9
$HANDSEED
5
FFFF
0
ENDSEC
0
SECTION
2
TABLES
0
TABLE
2
VPORT
5
8
100
AcDbSymbolTable
0
ENDTAB
0
TABLE
2
LTYPE
5
5
100
AcDbSymbolTable
0
LTYPE
5
14
100
AcDbSymbolTableRecord
100
AcDbLinetypeTableRecord
2
BYBLOCK
70
0
0
LTYPE
5
15
100
AcDbSymbolTableRecord
100
AcDbLinetypeTableRecord
2
BYLAYER
70
0
0
LTYPE
5
16
100
AcDbSymbolTableRecord
100
AcDbLinetypeTableRecord
2
DASHED
70
0
3
Dashed __ __ __ __ __ __ __ __ __ __ __ __ __ _
72
65
73
2
40
0.75
49
0.5
74
0
49
-0.25
74
0
0
ENDTAB
0
TABLE
2
LAYER
5
2
100
AcDbSymbolTable
70
2
0
LAYER
5
50
100
AcDbSymbolTableRecord
100
AcDbLayerTableRecord
2
0
70
0
62
7
6
CONTINUOUS
0
ENDTAB
0
TABLE
2
STYLE
5
3
100
AcDbSymbolTable
70
1
0
STYLE
5
11
100
AcDbSymbolTableRecord
100
AcDbTextStyleTableRecord
2
STANDARD
70
0
0
ENDTAB
0
TABLE
2
VIEW
5
6
100
AcDbSymbolTable
70
0
0
ENDTAB
0
TABLE
2
UCS
5
7
100
AcDbSymbolTable
70
0
0
ENDTAB
0
TABLE
2
APPID
5
9
100
AcDbSymbolTable
70
2
0
APPID
5
12
100
AcDbSymbolTableRecord
100
AcDbRegAppTableRecord
2
ACAD
70
0
0
ENDTAB
0
TABLE
2
DIMSTYLE
5
A
100
AcDbSymbolTable
70
1
0
ENDTAB
0
TABLE
2
BLOCK_RECORD
5
1
100
AcDbSymbolTable
70
1
0
BLOCK_RECORD
5
1F
100
AcDbSymbolTableRecord
100
AcDbBlockTableRecord
2
*MODEL_SPACE
0
BLOCK_RECORD
5
1B
100
AcDbSymbolTableRecord
100
AcDbBlockTableRecord
2
*PAPER_SPACE
0
ENDTAB
0
ENDSEC
0
SECTION
2
BLOCKS
0
BLOCK
5
20
100
AcDbEntity
100
AcDbBlockBegin
2
*MODEL_SPACE
0
ENDBLK
5
21
100
AcDbEntity
100
AcDbBlockEnd
0
BLOCK
5
1C
100
AcDbEntity
100
AcDbBlockBegin
2
*PAPER_SPACE
0
ENDBLK
5
1D
100
AcDbEntity
100
AcDbBlockEnd
0
ENDSEC
0
SECTION
2
ENTITIES
0
POINT
5
100
100
AcDbEntity
8
0
100
AcDbPoint
10
0
20
0
30
0
0
POINT
5
101
100
AcDbEntity
8
0
100
AcDbPoint
10
69.999999999992639
20
-115
30
0
0
POINT
5
102
100
AcDbEntity
8
0
100
AcDbPoint
10
69.999999999992639
20
-101.66666666666666
30
0
0
POINT
5
103
100
AcDbEntity
8
0
100
AcDbPoint
10
69.999999999992639
20
-88.333333333333343
30
0
0
POINT
5
104
100
AcDbEntity
8
0
100
AcDbPoint
10
69.999999999992639
20
-61.666666666666671
30
0
0
POINT
5
105
100
AcDbEntity
8
0
100
AcDbPoint
10
69.999999999992639
20
-48.333333333333343
30
0
0
POINT
5
106
100
AcDbEntity
8
0
100
AcDbPoint
10
69.999999999992639
20
-35
30
0
0
LWPOLYLINE
5
107
100
AcDbEntity
8
0
100
AcDbPolyline
90
4
70
1
43
0.0
10
0
20
0
10
540
20
0
10
540
20
-150
10
4.9303806576313238e-31
20
-150
0
LINE
5
108
100
AcDbEntity
8
0
100
AcDbLine
10
69.999999999822364
20
-184.76439242013842
30
0
11
69.999999999892125
21
75
31
0
6
DASHED
0
LINE
5
109
100
AcDbEntity
8
0
100
AcDbLine
10
-34.101317895594342
20
-75
30
0
11
237.28123080103552
21
-75
31
0
0
LWPOLYLINE
5
110
100
AcDbEntity
8
0
100
AcDbPolyline
90
14
70
1
43
0.0
10
72.999999999901689
20
-72.499999999907644
10
78.799999999909915
20
-72.499999999976723
42
-0.41421356237309503
10
80.79999999990352
20
-74.499999999975799
10
80.799999999902184
20
-75.499999999976964
42
-0.41421356237269441
10
78.799999999902695
20
-77.499999999973724
10
72.999999999915374
20
-77.49999999996993
10
72.999999999915389
20
-77.89999999992547
10
71.999999999915389
20
-77.89999999984434
10
71.999999999895977
20
-77.499999999902002
10
70.000000000093166
20
-77.49999999984712
10
69.999999999892125
20
-72.50000000015288
10
71.999999999907814
20
-72.499999999909235
10
71.999999999910543
20
-72.099999999896909
10
72.999999999910543
20
-72.099999999901129
0
LINE
5
111
100
AcDbEntity
8
0
100
AcDbLine
10
69.999999999992639
20
-75
30
0
11
87.587426930447222
21
-75.000000000714962
31
0
0
LWPOLYLINE
5
112
100
AcDbEntity
8
0
100
AcDbPolyline
90
14
70
1
43
0.0
10
71.999999999907814
20
-112.49999999990922
10
71.999999999910543
20
-112.09999999989691
10
72.999999999910543
20
-112.09999999990114
10
72.999999999901689
20
-112.49999999990764
10
78.799999999909915
20
-112.49999999997672
42
-0.41421356237309503
10
80.79999999990352
20
-114.4999999999758
10
80.799999999902184
20
-115.49999999997698
42
-0.4142135623726918
10
78.799999999902695
20
-117.49999999997372
10
72.999999999915374
20
-117.49999999996994
10
72.999999999915389
20
-117.89999999992547
10
71.999999999915389
20
-117.89999999984434
10
71.999999999895977
20
-117.49999999990202
10
70.000000000093166
20
-117.49999999984712
10
69.999999999892125
20
-112.50000000015288
0
LWPOLYLINE
5
113
100
AcDbEntity
8
0
100
AcDbPolyline
90
14
70
1
43
0.0
10
71.999999999907814
20
-99.166666666575907
10
71.999999999910543
20
-98.766666666563566
10
72.999999999910543
20
-98.766666666567772
10
72.999999999901689
20
-99.166666666574315
10
78.799999999909915
20
-99.16666666664338
42
-0.41421356237309503
10
80.79999999990352
20
-101.16666666664246
10
80.799999999902184
20
-102.16666666664364
42
-0.41421356237269441
10
78.799999999902695
20
-104.1666666666404
10
72.999999999915374
20
-104.1666666666366
10
72.999999999915389
20
-104.56666666659214
10
71.999999999915389
20
-104.56666666651103
10
71.999999999895977
20
-104.16666666656867
10
70.000000000093166
20
-104.16666666651381
10
69.999999999892125
20
-99.166666666819538
0
LWPOLYLINE
5
114
100
AcDbEntity
8
0
100
AcDbPolyline
90
14
70
1
43
0.0
10
71.999999999907814
20
-85.833333333242564
10
71.999999999910543
20
-85.433333333230252
10
72.999999999910543
20
-85.433333333234458
10
72.999999999901689
20
-85.833333333240972
10
78.799999999909915
20
-85.833333333310051
42
-0.41421356237309503
10
80.79999999990352
20
-87.833333333309142
10
80.799999999902184
20
-88.833333333310307
42
-0.41421356237269441
10
78.799999999902695
20
-90.833333333307053
10
72.999999999915374
20
-90.833333333303273
10
72.999999999915389
20
-91.233333333258798
10
71.999999999915389
20
-91.233333333177669
10
71.999999999895977
20
-90.833333333235345
10
70.000000000093166
20
-90.833333333180448
10
69.999999999892125
20
-85.833333333486209
0
LWPOLYLINE
5
115
100
AcDbEntity
8
0
100
AcDbPolyline
90
14
70
1
43
0.0
10
71.999999999907814
20
-59.166666666575907
10
71.999999999910543
20
-58.76666666656358
10
72.999999999910543
20
-58.766666666567801
10
72.999999999901689
20
-59.166666666574308
10
78.799999999909915
20
-59.166666666643394
42
-0.41421356237309503
10
80.79999999990352
20
-61.16666666664247
10
80.799999999902184
20
-62.166666666643636
42
-0.41421356237269441
10
78.799999999902695
20
-64.166666666640396
10
72.999999999915374
20
-64.166666666636601
10
72.999999999915389
20
-64.566666666592141
10
71.999999999915389
20
-64.566666666511011
10
71.999999999895977
20
-64.166666666568673
10
70.000000000093166
20
-64.166666666513791
10
69.999999999892125
20
-59.166666666819545
0
LWPOLYLINE
5
116
100
AcDbEntity
8
0
100
AcDbPolyline
90
14
70
1
43
0.0
10
71.999999999907814
20
-45.833333333242564
10
71.999999999910543
20
-45.433333333230252
10
72.999999999910543
20
-45.433333333234465
10
72.999999999901689
20
-45.833333333240972
10
78.799999999909915
20
-45.833333333310058
42
-0.41421356237309503
10
80.79999999990352
20
-47.833333333309142
10
80.799999999902184
20
-48.8333333333103
42
-0.41421356237269569
10
78.799999999902695
20
-50.833333333307053
10
72.999999999915374
20
-50.833333333303266
10
72.999999999915389
20
-51.233333333258798
10
71.999999999915389
20
-51.233333333177676
10
71.999999999895977
20
-50.833333333235338
10
70.000000000093166
20
-50.833333333180455
10
69.999999999892125
20
-45.833333333486209
0
LWPOLYLINE
5
117
100
AcDbEntity
8
0
100
AcDbPolyline
90
14
70
1
43
0.0
10
71.999999999907814
20
-32.499999999909235
10
71.999999999910543
20
-32.099999999896909
10
72.999999999910543
20
-32.099999999901129
10
72.999999999901689
20
-32.499999999907637
10
78.799999999909915
20
-32.499999999976723
42
-0.41421356237309503
10
80.79999999990352
20
-34.499999999975799
10
80.799999999902184
20
-35.499999999976964
42
-0.41421356237269441
10
78.799999999902695
20
-37.499999999973717
10
72.999999999915374
20
-37.499999999969937
10
72.999999999915389
20
-37.899999999925463
10
71.999999999915389
20
-37.899999999844347
10
71.999999999895977
20
-37.499999999902009
10
70.000000000093166
20
-37.499999999847127
10
69.999999999892125
20
-32.500000000152873
0
LINE
5
118
100
AcDbEntity
8
0
100
AcDbLine
10
210
20
-150
30
0
11
210
21
0
31
0
0
LINE
5
119
100
AcDbEntity
8
0
100
AcDbLine
10
330
20
0
30
0
11
330
21
-150
31
0
0
ENDSEC
0
SECTION
2
OBJECTS
0
DICTIONARY
5
C
100
AcDbDictionary
3
ACAD_GROUP
350
D
3
ACAD_MLINESTYLE
350
17
0
DICTIONARY
5
D
100
AcDbDictionary
0
DICTIONARY
5
1A
330
C
100
AcDbDictionary
0
DICTIONARY
5
17
100
AcDbDictionary
0
ENDSEC
0
EOF
